<svg xmlns="http://www.w3.org/2000/svg" viewBox="0 0 64 64" width="64" height="64">
  <rect width="64" height="64" rx="10" fill="#1c1c1f"/>
  <g fill="#FF6A2C">
    <path d="M15.9 31.3 L18.1 34.7 L41.1 19.67 L38.9 16.33 Z"/>
    <path d="M50.5 17.75 L43.88 7.75 L35.5 13.25 L42.1 23.25 Z"/>
    <path mask="url(#fav-ctrl)" d="M24 24 H40 C42.5 24 44 25.8 44 28 C44 32.8 42 35 39.6 35 C38.2 35 37.4 34.2 36.7 33.4 H27.3 C26.6 34.2 25.8 35 24.4 35 C22 35 20 32.8 20 28 C20 25.8 21.5 24 24 24 Z"/>
    <path d="M50 40 L17 40 L8 43 L17 46 L50 46 Z"/>
    <path d="M27 46 H39 L41 50 L45 56 H21 L25 50 Z"/>
  </g>
  <g stroke="#FF6A2C" stroke-width="2.2" stroke-linecap="round" fill="none">
    <path d="M51 16 L55 12"/>
    <path d="M54 18.5 L59 15.5"/>
    <path d="M50 21 L54 19.6"/>
  </g>
  <defs>
    <mask id="fav-ctrl">
      <rect width="64" height="64" fill="black"/>
      <path fill="white" d="M24 24 H40 C42.5 24 44 25.8 44 28 C44 32.8 42 35 39.6 35 C38.2 35 37.4 34.2 36.7 33.4 H27.3 C26.6 34.2 25.8 35 24.4 35 C22 35 20 32.8 20 28 C20 25.8 21.5 24 24 24 Z"/>
      <rect x="26.1" y="26.4" width="1.8" height="5.2" fill="black"/>
      <rect x="24.5" y="28.1" width="5" height="1.8" fill="black"/>
      <circle cx="37.5" cy="27" r="0.95" fill="black"/>
      <circle cx="35.6" cy="29" r="0.95" fill="black"/>
      <circle cx="39.4" cy="29" r="0.95" fill="black"/>
      <circle cx="37.5" cy="31" r="0.95" fill="black"/>
    </mask>
  </defs>
</svg>
